<svg width="14" height="10" viewBox="0 0 14 10" fill="none" xmlns="http://www.w3.org/2000/svg">
<path d="M12.7426 2.46101C13.1331 2.07048 13.1331 1.43732 12.7426 1.0468C12.3521 0.656274 11.7189 0.656276 11.3284 1.0468L5.54256 6.83267L1.96049 3.25063C1.56997 2.86011 0.936801 2.86011 0.546278 3.25063C0.155755 3.64116 0.155758 4.27432 0.546283 4.66485L4.8166 8.93513C4.8227 8.94156 4.82891 8.94793 4.83522 8.95424C5.16858 9.2876 5.67875 9.3364 6.06387 9.10062C6.13002 9.06016 6.19249 9.0113 6.24974 8.95405C6.25283 8.95096 6.25589 8.94785 6.25893 8.94473L12.7426 2.46101Z" fill="#E47AD5"/>
</svg>
